<?xml version="1.0" encoding="UTF-8"?>
<!--Generator: Apple Native CoreSVG 232.5-->
<!DOCTYPE svg
PUBLIC "-//W3C//DTD SVG 1.1//EN"
       "http://www.w3.org/Graphics/SVG/1.1/DTD/svg11.dtd">
<svg version="1.1" xmlns="http://www.w3.org/2000/svg" xmlns:xlink="http://www.w3.org/1999/xlink" width="89.6694" height="60.2475">
 <g>
  <rect height="60.2475" opacity="0" width="89.6694" x="0" y="0"/>
  <path d="M35.9014 60.1213C37.7129 60.6105 39.3847 59.6428 39.9228 57.8137L55.6074 4.08074C56.101 2.36494 55.2465 0.708705 53.4551 0.219452C51.668-0.269801 50.0806 0.484584 49.478 2.50703L33.8823 56.0578C33.3242 57.8913 34.0454 59.6076 35.9014 60.1213Z" fill="#000000" fill-opacity="0.85"/>
  <path d="M3.49825e-05 30.1115C-0.00435937 31.0285 0.405305 31.9719 1.19582 32.676L21.9761 51.4182C23.4156 52.7248 25.3399 52.6784 26.5488 51.341C27.7578 49.9748 27.6025 48.0349 26.2275 46.8083L7.78072 30.1115L26.2275 13.4147C27.6025 12.1637 27.7578 10.2238 26.5488 8.88203C25.3399 7.52023 23.4156 7.47384 21.9761 8.78047L1.19582 27.5427C0.405305 28.2268-0.00435937 29.1901 3.49825e-05 30.1115ZM89.3276 30.1115C89.332 29.1901 88.9223 28.2268 88.1318 27.5427L67.3515 8.78047C65.912 7.47384 63.9877 7.52023 62.7788 8.88203C61.5654 10.2238 61.7251 12.1637 63.1201 13.4147L81.5425 30.1115L63.1201 46.8083C61.7251 48.0349 61.5654 49.9748 62.7788 51.341C63.9877 52.6784 65.912 52.7248 67.3515 51.4182L88.1318 32.676C88.9223 31.9719 89.332 31.0285 89.3276 30.1115Z" fill="#000000" fill-opacity="0.85"/>
 </g>
</svg>
